<svg width="18" height="18" viewBox="0 0 18 18" fill="none" xmlns="http://www.w3.org/2000/svg">
<path d="M0 1.875C0 0.839466 0.839466 0 1.875 0L5.625 0C6.66053 0 7.5 0.839466 7.5 1.875V5.625C7.5 6.66053 6.66053 7.5 5.625 7.5H1.875C0.839466 7.5 0 6.66053 0 5.625L0 1.875ZM1.875 1.25C1.52982 1.25 1.25 1.52982 1.25 1.875V5.625C1.25 5.97018 1.52982 6.25 1.875 6.25H5.625C5.97018 6.25 6.25 5.97018 6.25 5.625V1.875C6.25 1.52982 5.97018 1.25 5.625 1.25H1.875ZM10 1.875C10 0.839466 10.8395 0 11.875 0L15.625 0C16.6605 0 17.5 0.839466 17.5 1.875V5.625C17.5 6.66053 16.6605 7.5 15.625 7.5H11.875C10.8395 7.5 10 6.66053 10 5.625V1.875ZM11.875 1.25C11.5298 1.25 11.25 1.52982 11.25 1.875V5.625C11.25 5.97018 11.5298 6.25 11.875 6.25H15.625C15.9702 6.25 16.25 5.97018 16.25 5.625V1.875C16.25 1.52982 15.9702 1.25 15.625 1.25H11.875ZM0 11.875C0 10.8395 0.839466 10 1.875 10H5.625C6.66053 10 7.5 10.8395 7.5 11.875V15.625C7.5 16.6605 6.66053 17.5 5.625 17.5H1.875C0.839466 17.5 0 16.6605 0 15.625L0 11.875ZM1.875 11.25C1.52982 11.25 1.25 11.5298 1.25 11.875V15.625C1.25 15.9702 1.52982 16.25 1.875 16.25H5.625C5.97018 16.25 6.25 15.9702 6.25 15.625V11.875C6.25 11.5298 5.97018 11.25 5.625 11.25H1.875ZM10 11.875C10 10.8395 10.8395 10 11.875 10H15.625C16.6605 10 17.5 10.8395 17.5 11.875V15.625C17.5 16.6605 16.6605 17.5 15.625 17.5H11.875C10.8395 17.5 10 16.6605 10 15.625V11.875ZM11.875 11.25C11.5298 11.25 11.25 11.5298 11.25 11.875V15.625C11.25 15.9702 11.5298 16.25 11.875 16.25H15.625C15.9702 16.25 16.25 15.9702 16.25 15.625V11.875C16.25 11.5298 15.9702 11.25 15.625 11.25H11.875Z" fill="white"/>
</svg>
