<svg width="13" height="20" viewBox="0 0 13 20" fill="none" xmlns="http://www.w3.org/2000/svg">
<path d="M10 1.25C10.6904 1.25 11.25 1.80964 11.25 2.5V17.5C11.25 18.1904 10.6904 18.75 10 18.75H2.5C1.80964 18.75 1.25 18.1904 1.25 17.5V2.5C1.25 1.80964 1.80964 1.25 2.5 1.25H10ZM2.5 0C1.11929 0 0 1.11929 0 2.5V17.5C0 18.8807 1.11929 20 2.5 20H10C11.3807 20 12.5 18.8807 12.5 17.5V2.5C12.5 1.11929 11.3807 0 10 0H2.5Z" fill="#007AFF"/>
<path d="M6.25 17.5C6.94036 17.5 7.5 16.9404 7.5 16.25C7.5 15.5596 6.94036 15 6.25 15C5.55964 15 5 15.5596 5 16.25C5 16.9404 5.55964 17.5 6.25 17.5Z" fill="#007AFF"/>
</svg>
