<svg width="18" height="15" viewBox="0 0 18 15" fill="none" xmlns="http://www.w3.org/2000/svg">
<path fill-rule="evenodd" clip-rule="evenodd" d="M0 14.25C0 13.8358 0.335786 13.5 0.75 13.5H11.25C11.6642 13.5 12 13.8358 12 14.25C12 14.6642 11.6642 15 11.25 15H0.75C0.335786 15 0 14.6642 0 14.25Z" fill="white"/>
<path fill-rule="evenodd" clip-rule="evenodd" d="M0 9.75C0 9.33579 0.335786 9 0.75 9H17.25C17.6642 9 18 9.33579 18 9.75C18 10.1642 17.6642 10.5 17.25 10.5H0.75C0.335786 10.5 0 10.1642 0 9.75Z" fill="white"/>
<path fill-rule="evenodd" clip-rule="evenodd" d="M0 5.25C0 4.83579 0.335786 4.5 0.75 4.5H17.25C17.6642 4.5 18 4.83579 18 5.25C18 5.66421 17.6642 6 17.25 6H0.75C0.335786 6 0 5.66421 0 5.25Z" fill="white"/>
<path fill-rule="evenodd" clip-rule="evenodd" d="M0 0.75C0 0.335786 0.335786 0 0.75 0H17.25C17.6642 0 18 0.335786 18 0.75C18 1.16421 17.6642 1.5 17.25 1.5H0.75C0.335786 1.5 0 1.16421 0 0.75Z" fill="white"/>
</svg>
