<svg width="15" height="20" viewBox="0 0 15 20" fill="none" xmlns="http://www.w3.org/2000/svg">
<path d="M2.5 3.125C2.5 2.77982 2.77982 2.5 3.125 2.5H4.375C4.72018 2.5 5 2.77982 5 3.125V4.375C5 4.72018 4.72018 5 4.375 5H3.125C2.77982 5 2.5 4.72018 2.5 4.375V3.125Z" fill="#006CE4"/>
<path d="M6.25 3.125C6.25 2.77982 6.52982 2.5 6.875 2.5H8.125C8.47018 2.5 8.75 2.77982 8.75 3.125V4.375C8.75 4.72018 8.47018 5 8.125 5H6.875C6.52982 5 6.25 4.72018 6.25 4.375V3.125Z" fill="#006CE4"/>
<path d="M10.625 2.5C10.2798 2.5 10 2.77982 10 3.125V4.375C10 4.72018 10.2798 5 10.625 5H11.875C12.2202 5 12.5 4.72018 12.5 4.375V3.125C12.5 2.77982 12.2202 2.5 11.875 2.5H10.625Z" fill="#006CE4"/>
<path d="M2.5 6.875C2.5 6.52982 2.77982 6.25 3.125 6.25H4.375C4.72018 6.25 5 6.52982 5 6.875V8.125C5 8.47018 4.72018 8.75 4.375 8.75H3.125C2.77982 8.75 2.5 8.47018 2.5 8.125V6.875Z" fill="#006CE4"/>
<path d="M6.875 6.25C6.52982 6.25 6.25 6.52982 6.25 6.875V8.125C6.25 8.47018 6.52982 8.75 6.875 8.75H8.125C8.47018 8.75 8.75 8.47018 8.75 8.125V6.875C8.75 6.52982 8.47018 6.25 8.125 6.25H6.875Z" fill="#006CE4"/>
<path d="M10 6.875C10 6.52982 10.2798 6.25 10.625 6.25H11.875C12.2202 6.25 12.5 6.52982 12.5 6.875V8.125C12.5 8.47018 12.2202 8.75 11.875 8.75H10.625C10.2798 8.75 10 8.47018 10 8.125V6.875Z" fill="#006CE4"/>
<path d="M3.125 10C2.77982 10 2.5 10.2798 2.5 10.625V11.875C2.5 12.2202 2.77982 12.5 3.125 12.5H4.375C4.72018 12.5 5 12.2202 5 11.875V10.625C5 10.2798 4.72018 10 4.375 10H3.125Z" fill="#006CE4"/>
<path d="M6.25 10.625C6.25 10.2798 6.52982 10 6.875 10H8.125C8.47018 10 8.75 10.2798 8.75 10.625V11.875C8.75 12.2202 8.47018 12.5 8.125 12.5H6.875C6.52982 12.5 6.25 12.2202 6.25 11.875V10.625Z" fill="#006CE4"/>
<path d="M10.625 10C10.2798 10 10 10.2798 10 10.625V11.875C10 12.2202 10.2798 12.5 10.625 12.5H11.875C12.2202 12.5 12.5 12.2202 12.5 11.875V10.625C12.5 10.2798 12.2202 10 11.875 10H10.625Z" fill="#006CE4"/>
<path d="M0 1.25C0 0.559645 0.559643 0 1.25 0H13.75C14.4404 0 15 0.559644 15 1.25V18.75C15 19.4404 14.4404 20 13.75 20H1.25C0.559645 20 0 19.4404 0 18.75V1.25ZM13.75 1.25L1.25 1.25V18.75H5V15.625C5 15.2798 5.27982 15 5.625 15H9.375C9.72018 15 10 15.2798 10 15.625V18.75H13.75V1.25Z" fill="#006CE4"/>
</svg>
