<svg width="18" height="24" viewBox="0 0 18 24" fill="none" xmlns="http://www.w3.org/2000/svg">
<path d="M15.2487 13.4096C14.4626 15.0023 13.3987 16.5902 12.3086 18.0151C11.222 19.4355 10.1316 20.6652 9.31153 21.5407C9.20255 21.657 9.09849 21.767 9 21.8701C8.90151 21.767 8.79745 21.657 8.68847 21.5407C7.86837 20.6652 6.77802 19.4355 5.69137 18.0151C4.60131 16.5902 3.53737 15.0023 2.75134 13.4096C1.95721 11.8006 1.5 10.2929 1.5 9C1.5 4.85786 4.85786 1.5 9 1.5C13.1421 1.5 16.5 4.85786 16.5 9C16.5 10.2929 16.0428 11.8006 15.2487 13.4096ZM9 24C9 24 18 15.4706 18 9C18 4.02944 13.9706 0 9 0C4.02944 0 0 4.02944 0 9C0 15.4706 9 24 9 24Z" fill="#364153"/>
<path d="M9 12C7.34315 12 6 10.6569 6 9C6 7.34315 7.34315 6 9 6C10.6569 6 12 7.34315 12 9C12 10.6569 10.6569 12 9 12ZM9 13.5C11.4853 13.5 13.5 11.4853 13.5 9C13.5 6.51472 11.4853 4.5 9 4.5C6.51472 4.5 4.5 6.51472 4.5 9C4.5 11.4853 6.51472 13.5 9 13.5Z" fill="#364153"/>
</svg>
