<svg width="20" height="20" viewBox="0 0 20 20" fill="none" xmlns="http://www.w3.org/2000/svg">
<path d="M3.71339 1.68651C3.95087 1.40945 4.29755 1.25 4.66246 1.25H15.3375C15.7024 1.25 16.0491 1.40945 16.2866 1.68651L19.5486 5.49217C19.8399 5.832 20 6.26482 20 6.71241V7.03125C20 8.67085 18.6708 10 17.0312 10C16.0786 10 15.2307 9.55127 14.6875 8.85364C14.1443 9.55127 13.2964 10 12.3438 10C11.3911 10 10.5432 9.55127 10 8.85364C9.45678 9.55127 8.60892 10 7.65625 10C6.70358 10 5.85572 9.55127 5.3125 8.85364C4.76928 9.55127 3.92142 10 2.96875 10C1.32915 10 0 8.67085 0 7.03125V6.71241C0 6.26482 0.16011 5.832 0.451394 5.49217L3.71339 1.68651ZM5.9375 7.03125C5.9375 7.98049 6.70701 8.75 7.65625 8.75C8.60549 8.75 9.375 7.98049 9.375 7.03125C9.375 6.68607 9.65482 6.40625 10 6.40625C10.3452 6.40625 10.625 6.68607 10.625 7.03125C10.625 7.98049 11.3945 8.75 12.3438 8.75C13.293 8.75 14.0625 7.98049 14.0625 7.03125C14.0625 6.68607 14.3423 6.40625 14.6875 6.40625C15.0327 6.40625 15.3125 6.68607 15.3125 7.03125C15.3125 7.98049 16.082 8.75 17.0312 8.75C17.9805 8.75 18.75 7.98049 18.75 7.03125V6.71241C18.75 6.56321 18.6966 6.41894 18.5995 6.30566L15.3375 2.5H4.66246L1.40046 6.30566C1.30337 6.41894 1.25 6.56321 1.25 6.71241V7.03125C1.25 7.98049 2.01951 8.75 2.96875 8.75C3.91799 8.75 4.6875 7.98049 4.6875 7.03125C4.6875 6.68607 4.96732 6.40625 5.3125 6.40625C5.65768 6.40625 5.9375 6.68607 5.9375 7.03125ZM1.875 10.625C2.22018 10.625 2.5 10.9048 2.5 11.25V18.75H17.5V11.25C17.5 10.9048 17.7798 10.625 18.125 10.625C18.4702 10.625 18.75 10.9048 18.75 11.25V18.75H19.375C19.7202 18.75 20 19.0298 20 19.375C20 19.7202 19.7202 20 19.375 20H0.625C0.279822 20 0 19.7202 0 19.375C0 19.0298 0.279822 18.75 0.625 18.75H1.25V11.25C1.25 10.9048 1.52982 10.625 1.875 10.625ZM4.375 11.25C4.72018 11.25 5 11.5298 5 11.875V16.25H15V11.875C15 11.5298 15.2798 11.25 15.625 11.25C15.9702 11.25 16.25 11.5298 16.25 11.875V16.25C16.25 16.9404 15.6904 17.5 15 17.5H5C4.30964 17.5 3.75 16.9404 3.75 16.25V11.875C3.75 11.5298 4.02982 11.25 4.375 11.25Z" fill="#006CE4"/>
</svg>
