<svg width="20" height="15" viewBox="0 0 20 15" fill="none" xmlns="http://www.w3.org/2000/svg">
<path d="M18.75 15C18.75 15 20 15 20 13.75C20 12.5 18.75 8.75 13.75 8.75C8.75 8.75 7.5 12.5 7.5 13.75C7.5 15 8.75 15 8.75 15H18.75ZM8.77793 13.75C8.7736 13.7495 8.76754 13.7487 8.76019 13.7475C8.75672 13.7469 8.75333 13.7463 8.75001 13.7456C8.75182 13.4156 8.95859 12.4586 9.69907 11.5947C10.3917 10.7867 11.6034 10 13.75 10C15.8966 10 17.1083 10.7867 17.8009 11.5947C18.5414 12.4586 18.7482 13.4156 18.75 13.7456C18.7467 13.7463 18.7433 13.7469 18.7398 13.7475C18.7325 13.7487 18.7264 13.7495 18.7221 13.75H8.77793Z" fill="#006CE4"/>
<path d="M13.75 6.25C15.1307 6.25 16.25 5.13071 16.25 3.75C16.25 2.36929 15.1307 1.25 13.75 1.25C12.3693 1.25 11.25 2.36929 11.25 3.75C11.25 5.13071 12.3693 6.25 13.75 6.25ZM17.5 3.75C17.5 5.82107 15.8211 7.5 13.75 7.5C11.6789 7.5 10 5.82107 10 3.75C10 1.67893 11.6789 0 13.75 0C15.8211 0 17.5 1.67893 17.5 3.75Z" fill="#006CE4"/>
<path d="M8.66991 9.09996C8.21017 8.9529 7.69942 8.84599 7.13285 8.79132C6.85244 8.76426 6.55835 8.75 6.25 8.75C1.25 8.75 0 12.5 0 13.75C0 14.5833 0.416667 15 1.25 15H6.52045C6.34445 14.6449 6.25 14.2239 6.25 13.75C6.25 12.4871 6.72156 11.1975 7.61227 10.1202C7.91659 9.75218 8.26983 9.40891 8.66991 9.09996ZM6.15005 10.0006C5.40319 11.142 5 12.4434 5 13.75H1.25C1.25 13.4241 1.45531 12.4625 2.19907 11.5947C2.88086 10.7993 4.06562 10.0246 6.15005 10.0006Z" fill="#006CE4"/>
<path d="M1.875 4.375C1.875 2.30393 3.55393 0.625 5.625 0.625C7.69607 0.625 9.375 2.30393 9.375 4.375C9.375 6.44607 7.69607 8.125 5.625 8.125C3.55393 8.125 1.875 6.44607 1.875 4.375ZM5.625 1.875C4.24429 1.875 3.125 2.99429 3.125 4.375C3.125 5.75571 4.24429 6.875 5.625 6.875C7.00571 6.875 8.125 5.75571 8.125 4.375C8.125 2.99429 7.00571 1.875 5.625 1.875Z" fill="#006CE4"/>
</svg>
