<svg width="20" height="15" viewBox="0 0 20 15" fill="none" xmlns="http://www.w3.org/2000/svg">
<path d="M18.75 12.5C18.75 13.1904 18.1904 13.75 17.5 13.75H2.5C1.80964 13.75 1.25 13.1904 1.25 12.5V5C1.25 4.30964 1.80964 3.75 2.5 3.75H3.96447C4.95903 3.75 5.91286 3.35491 6.61612 2.65165L7.65165 1.61612C7.88607 1.3817 8.20401 1.25 8.53553 1.25H11.4645C11.796 1.25 12.1139 1.3817 12.3483 1.61612L13.3839 2.65165C14.0871 3.35491 15.041 3.75 16.0355 3.75H17.5C18.1904 3.75 18.75 4.30964 18.75 5V12.5ZM2.5 2.5C1.11929 2.5 0 3.61929 0 5V12.5C0 13.8807 1.11929 15 2.5 15H17.5C18.8807 15 20 13.8807 20 12.5V5C20 3.61929 18.8807 2.5 17.5 2.5H16.0355C15.3725 2.5 14.7366 2.23661 14.2678 1.76777L13.2322 0.732233C12.7634 0.263392 12.1275 0 11.4645 0H8.53553C7.87249 0 7.23661 0.263391 6.76777 0.732232L5.73223 1.76777C5.26339 2.23661 4.62751 2.5 3.96447 2.5H2.5Z" fill="#007AFF"/>
<path d="M10 11.25C8.27411 11.25 6.875 9.85089 6.875 8.125C6.875 6.39911 8.27411 5 10 5C11.7259 5 13.125 6.39911 13.125 8.125C13.125 9.85089 11.7259 11.25 10 11.25ZM10 12.5C12.4162 12.5 14.375 10.5412 14.375 8.125C14.375 5.70875 12.4162 3.75 10 3.75C7.58375 3.75 5.625 5.70875 5.625 8.125C5.625 10.5412 7.58375 12.5 10 12.5Z" fill="#007AFF"/>
<path d="M3.75 5.625C3.75 5.97018 3.47018 6.25 3.125 6.25C2.77982 6.25 2.5 5.97018 2.5 5.625C2.5 5.27982 2.77982 5 3.125 5C3.47018 5 3.75 5.27982 3.75 5.625Z" fill="#007AFF"/>
</svg>
