<svg width="20" height="17" viewBox="0 0 20 17" fill="none" xmlns="http://www.w3.org/2000/svg">
<path d="M13.75 5.2287V3.3959H6.25C3.48858 3.3959 1.25 5.63448 1.25 8.3959C1.25 9.19527 1.43713 9.94915 1.7694 10.6178C1.92301 10.9269 1.79696 11.302 1.48785 11.4556C1.17873 11.6092 0.803619 11.4832 0.650003 11.174C0.233756 10.3365 0 9.39258 0 8.3959C0 4.94412 2.79822 2.1459 6.25 2.1459H13.75V0.313098C13.75 0.0481483 14.059 -0.0965884 14.2626 0.073028L17.2119 2.53083C17.3618 2.65576 17.3618 2.88603 17.2119 3.01097L14.2626 5.46877C14.059 5.63838 13.75 5.49365 13.75 5.2287Z" fill="#006CE4"/>
<path d="M18.5122 5.3362C18.8213 5.18259 19.1964 5.30864 19.35 5.61776C19.7662 6.45535 20 7.39922 20 8.3959C20 11.8477 17.2018 14.6459 13.75 14.6459H6.25V16.4787C6.25 16.7436 5.94098 16.8884 5.73744 16.7188L2.78808 14.261C2.63816 14.136 2.63816 13.9058 2.78808 13.7808L5.73744 11.323C5.94098 11.1534 6.25 11.2981 6.25 11.5631V13.3959H13.75C16.5114 13.3959 18.75 11.1573 18.75 8.3959C18.75 7.59653 18.5629 6.84265 18.2306 6.17405C18.077 5.86493 18.203 5.48982 18.5122 5.3362Z" fill="#006CE4"/>
</svg>
