<svg width="20" height="20" viewBox="0 0 20 20" fill="none" xmlns="http://www.w3.org/2000/svg">
<path fill-rule="evenodd" clip-rule="evenodd" d="M0.625006 7.49996C0.435431 7.49996 0.256102 7.586 0.137479 7.73388C0.0188572 7.88176 -0.0262359 8.07548 0.0148887 8.26054L2.07985 17.5529C2.39758 18.9827 3.66575 20 5.13043 20H12.3696C13.8343 20 15.1024 18.9827 15.4202 17.5529L15.5839 16.8159C15.8004 16.8547 16.023 16.875 16.25 16.875C18.3211 16.875 20 15.196 20 13.125C20 11.3856 18.8161 9.92318 17.2099 9.49904L17.4851 8.26054C17.5262 8.07548 17.4812 7.88176 17.3625 7.73388C17.2439 7.586 17.0646 7.49996 16.875 7.49996H0.625006ZM16.25 15.625C16.1155 15.625 15.9838 15.6144 15.8554 15.5941L16.9384 10.7208C17.9842 11.0197 18.75 11.9831 18.75 13.125C18.75 14.5057 17.6307 15.625 16.25 15.625ZM3.30008 17.2817L1.40414 8.74996H16.0959L14.1999 17.2817C14.0093 18.1396 13.2484 18.75 12.3696 18.75H5.13043C4.25162 18.75 3.49072 18.1396 3.30008 17.2817Z" fill="#006CE4"/>
<path d="M5.50008 0.999831L5.49593 1.00543L5.47936 1.02813C5.46453 1.04861 5.44269 1.07916 5.41621 1.11741C5.36283 1.19452 5.29263 1.29993 5.22343 1.41525C5.15308 1.53251 5.09039 1.64907 5.04712 1.75004C5.01541 1.82404 5.00497 1.86502 5.00158 1.87835C5.00077 1.8815 5.00016 1.88323 5.00016 1.88323C5.00229 1.93934 5.02635 2.03583 5.11505 2.19352C5.20835 2.3594 5.33803 2.53398 5.5 2.74994L5.51144 2.76519C5.65972 2.96285 5.83691 3.19906 5.97442 3.44352C6.11556 3.69443 6.25 4.01296 6.25 4.37494C6.25 4.60956 6.16905 4.83532 6.10181 4.99223C6.02789 5.1647 5.93433 5.33459 5.84843 5.47775C5.76138 5.62284 5.67533 5.75181 5.61153 5.84398C5.57941 5.89036 5.55242 5.92817 5.53307 5.95489L5.50997 5.98651L5.50323 5.99561L5.50116 5.99838L5.5002 5.99966C5.2931 6.27581 4.90114 6.33204 4.625 6.12494C4.34897 5.91791 4.29294 5.52639 4.49976 5.25026L4.50407 5.24445L4.52064 5.22175C4.53547 5.20127 4.55731 5.17071 4.58379 5.13246C4.63717 5.05536 4.70737 4.94995 4.77657 4.83463C4.84692 4.71737 4.90961 4.6008 4.95288 4.49983C4.98459 4.42584 4.99503 4.38486 4.99842 4.37153C4.99923 4.36838 4.99984 4.36664 4.99984 4.36664C4.99771 4.31054 4.97365 4.21404 4.88495 4.05635C4.79165 3.89047 4.66197 3.71589 4.5 3.49994L4.48856 3.48468C4.34028 3.28702 4.16309 3.05082 4.02558 2.80635C3.88444 2.55544 3.75 2.23691 3.75 1.87494C3.75 1.64032 3.83094 1.41455 3.89819 1.25764C3.97211 1.08518 4.06567 0.915285 4.15157 0.772128C4.23862 0.627033 4.32467 0.498065 4.38847 0.4059C4.42059 0.359515 4.44758 0.32171 4.46693 0.29499L4.49884 0.251494L4.4998 0.250211C4.7069 -0.0259313 5.09886 -0.082169 5.375 0.124938C5.65103 0.331959 5.70688 0.723707 5.50008 0.999831Z" fill="#006CE4"/>
<path d="M9.25008 0.999831L9.24593 1.00543L9.22936 1.02813C9.21453 1.04861 9.19269 1.07916 9.16621 1.11741C9.11283 1.19452 9.04263 1.29993 8.97343 1.41525C8.90308 1.53251 8.84039 1.64907 8.79712 1.75004C8.76541 1.82404 8.75497 1.86502 8.75158 1.87835C8.75077 1.8815 8.75016 1.88323 8.75016 1.88323C8.75229 1.93934 8.77635 2.03583 8.86505 2.19352C8.95835 2.3594 9.08803 2.53398 9.25 2.74994L9.26144 2.76519C9.40972 2.96285 9.58691 3.19906 9.72442 3.44352C9.86556 3.69443 10 4.01296 10 4.37494C10 4.60956 9.91906 4.83532 9.85181 4.99223C9.77789 5.1647 9.68433 5.33459 9.59843 5.47775C9.51138 5.62284 9.42533 5.75181 9.36153 5.84398C9.32941 5.89036 9.30242 5.92817 9.28307 5.95489L9.25997 5.98651L9.25323 5.99561L9.25116 5.99838L9.2502 5.99966C9.0431 6.27581 8.65114 6.33204 8.375 6.12494C8.09897 5.91791 8.04294 5.52639 8.24976 5.25026L8.25407 5.24445L8.27064 5.22175C8.28547 5.20127 8.30731 5.17071 8.33379 5.13246C8.38717 5.05536 8.45737 4.94995 8.52657 4.83463C8.59692 4.71737 8.65961 4.6008 8.70288 4.49983C8.73459 4.42584 8.74503 4.38486 8.74842 4.37153C8.74923 4.36838 8.74984 4.36664 8.74984 4.36664C8.74771 4.31054 8.72365 4.21404 8.63495 4.05635C8.54165 3.89047 8.41197 3.71589 8.25 3.49994L8.23856 3.48468C8.09028 3.28702 7.91309 3.05082 7.77558 2.80635C7.63444 2.55544 7.5 2.23691 7.5 1.87494C7.5 1.64032 7.58094 1.41455 7.64819 1.25764C7.72211 1.08518 7.81567 0.915285 7.90157 0.772128C7.98862 0.627033 8.07467 0.498065 8.13847 0.4059C8.17059 0.359515 8.19758 0.32171 8.21693 0.29499L8.24884 0.251494L8.24979 0.250211C8.4569 -0.0259313 8.84886 -0.082169 9.125 0.124938C9.40103 0.331959 9.45689 0.723707 9.25008 0.999831Z" fill="#006CE4"/>
<path d="M13.0001 0.999831L12.9959 1.00543L12.9794 1.02813C12.9645 1.04861 12.9427 1.07916 12.9162 1.11741C12.8628 1.19452 12.7926 1.29993 12.7234 1.41525C12.6531 1.53251 12.5904 1.64907 12.5471 1.75004C12.5154 1.82404 12.505 1.86502 12.5016 1.87835C12.5008 1.8815 12.5002 1.88323 12.5002 1.88323C12.5023 1.93934 12.5263 2.03583 12.615 2.19352C12.7084 2.3594 12.838 2.53398 13 2.74994L13.0114 2.76519C13.1597 2.96285 13.3369 3.19906 13.4744 3.44352C13.6156 3.69443 13.75 4.01296 13.75 4.37494C13.75 4.60956 13.6691 4.83532 13.6018 4.99223C13.5279 5.1647 13.4343 5.33459 13.3484 5.47775C13.2614 5.62284 13.1753 5.75181 13.1115 5.84398C13.0794 5.89036 13.0524 5.92817 13.0331 5.95489L13.01 5.98651L13.0032 5.99561L13.0012 5.99838L13.0002 5.99966C12.7931 6.27581 12.4011 6.33204 12.125 6.12494C11.849 5.91791 11.7929 5.52639 11.9998 5.25026L12.0041 5.24445L12.0206 5.22175C12.0355 5.20127 12.0573 5.17071 12.0838 5.13246C12.1372 5.05536 12.2074 4.94995 12.2766 4.83463C12.3469 4.71737 12.4096 4.6008 12.4529 4.49983C12.4846 4.42584 12.495 4.38486 12.4984 4.37153C12.4992 4.36838 12.4998 4.36664 12.4998 4.36664C12.4977 4.31054 12.4737 4.21404 12.385 4.05635C12.2916 3.89047 12.162 3.71589 12 3.49994L11.9886 3.48468C11.8403 3.28702 11.6631 3.05082 11.5256 2.80635C11.3844 2.55544 11.25 2.23691 11.25 1.87494C11.25 1.64032 11.3309 1.41455 11.3982 1.25764C11.4721 1.08518 11.5657 0.915285 11.6516 0.772128C11.7386 0.627033 11.8247 0.498065 11.8885 0.4059C11.9206 0.359515 11.9476 0.32171 11.9669 0.29499L11.9988 0.251494L11.9998 0.250211C12.2069 -0.0259313 12.5989 -0.082169 12.875 0.124938C13.151 0.331959 13.2069 0.723707 13.0001 0.999831Z" fill="#006CE4"/>
</svg>
