<svg width="20" height="18" viewBox="0 0 20 18" fill="none" xmlns="http://www.w3.org/2000/svg">
<path d="M6.07725 5.34549L4.88212 7.73576C4.66199 8.17602 5.01369 8.68994 5.50432 8.65042C6.64009 8.55895 8.44149 8.4375 10 8.4375C11.5585 8.4375 13.3599 8.55895 14.4957 8.65042C14.9863 8.68994 15.338 8.17602 15.1179 7.73576L13.9227 5.34549C13.8169 5.13375 13.6005 5 13.3637 5H6.63627C6.39954 5 6.18312 5.13375 6.07725 5.34549Z" fill="#006CE4"/>
<path d="M5 11.25C5 11.9404 4.44036 12.5 3.75 12.5C3.05964 12.5 2.5 11.9404 2.5 11.25C2.5 10.5596 3.05964 10 3.75 10C4.44036 10 5 10.5596 5 11.25Z" fill="#006CE4"/>
<path d="M17.5 11.25C17.5 11.9404 16.9404 12.5 16.25 12.5C15.5596 12.5 15 11.9404 15 11.25C15 10.5596 15.5596 10 16.25 10C16.9404 10 17.5 10.5596 17.5 11.25Z" fill="#006CE4"/>
<path d="M6.25 11.25C6.25 10.5596 6.80964 10 7.5 10H12.5C13.1904 10 13.75 10.5596 13.75 11.25C13.75 11.9404 13.1904 12.5 12.5 12.5H7.5C6.80964 12.5 6.25 11.9404 6.25 11.25Z" fill="#006CE4"/>
<path d="M7.5 0C6.80964 0 6.25 0.559644 6.25 1.25V2.5H6.02349C4.7734 2.5 3.6436 3.24499 3.15116 4.394L2.16129 6.70371C2.0673 6.92303 1.89861 7.10192 1.6852 7.20863C1.06174 7.52036 0.617129 8.10247 0.480427 8.78598L0.0606854 10.8847C0.0203272 11.0865 0 11.2918 0 11.4975V12.0138C0 13.0313 0.487914 13.9422 1.25 14.5107V16.875C1.25 17.2202 1.52982 17.5 1.875 17.5H4.375C4.72018 17.5 5 17.2202 5 16.875V15.2025C6.61454 15.2625 8.43077 15.3125 10 15.3125C11.5692 15.3125 13.3855 15.2625 15 15.2025V16.875C15 17.2202 15.2798 17.5 15.625 17.5H18.125C18.4702 17.5 18.75 17.2202 18.75 16.875V14.5107C19.5121 13.9422 20 13.0313 20 12.0138V11.4975C20 11.2918 19.9797 11.0865 19.9393 10.8847L19.5196 8.78598C19.3829 8.10247 18.9383 7.52036 18.3148 7.20863C18.1014 7.10192 17.9327 6.92303 17.8387 6.70371L16.8488 4.394C16.3564 3.24499 15.2266 2.5 13.9765 2.5H13.75V1.25C13.75 0.559644 13.1904 0 12.5 0H7.5ZM6.02349 3.75H13.9765C14.7266 3.75 15.4044 4.19699 15.6999 4.8864L16.6898 7.19611C16.9002 7.68717 17.2779 8.08774 17.7558 8.32666C18.0342 8.46588 18.2328 8.72586 18.2938 9.03112L18.7136 11.1298C18.7378 11.2509 18.75 11.3741 18.75 11.4975V12.0138C18.75 13.0093 17.9759 13.8241 16.9901 13.869C15.0465 13.9573 12.2577 14.0625 10 14.0625C7.74234 14.0625 4.95355 13.9573 3.00986 13.869C2.02407 13.8241 1.25 13.0093 1.25 12.0138V11.4975C1.25 11.3741 1.2622 11.2509 1.28641 11.1298L1.70615 9.03112C1.76721 8.72586 1.96577 8.46588 2.24422 8.32666C2.72207 8.08774 3.09976 7.68717 3.31022 7.19611L4.30009 4.8864C4.59555 4.19699 5.27344 3.75 6.02349 3.75Z" fill="#006CE4"/>
</svg>
